<svg width="32" height="32" viewBox="0 0 96 96" fill="none" xmlns="http://www.w3.org/2000/svg">
  <path d="M48.2 27.5c9.9 0 22 8.4 22 22.6 0 15.7-11.5 26.4-22 26.4-10.7 0-22.4-10.7-22.4-26.4 0-14.2 12.4-22.6 22.4-22.6Z" fill="url(#berry)" stroke="url(#edge)" stroke-width="2"/>
  <path d="M48 30.1c-4.7-8-12.6-8.6-20.7-3.7 6.6 1.2 11.2 4 14 8.5" fill="url(#leaf)" stroke="#E7E2D9" stroke-opacity=".58" stroke-width="1.4" stroke-linejoin="round"/>
  <path d="M49.3 30.2c1.7-9.1 8.6-13.1 18-11.6-5.1 4.4-8 9-8.6 14.3" fill="url(#leaf)" stroke="#E7E2D9" stroke-opacity=".58" stroke-width="1.4" stroke-linejoin="round"/>
  <path d="M48 30.5c-1.2-8.5 2.5-14.1 9.6-18.1.4 7.1-1.6 12.7-6 16.7" fill="url(#leaf)" stroke="#E7E2D9" stroke-opacity=".58" stroke-width="1.4" stroke-linejoin="round"/>
  <path d="M33 37.5c-5.8-4.4-12.9-2.9-17 3.2 6.3-1.5 11.5-.7 15.5 2.5" stroke="url(#ribbon)" stroke-width="2" stroke-linecap="round"/>
  <path d="M63.7 38.1c6.8-5.7 14.1-4.9 19.7 1.8-7.1-.6-12.6 1-16.6 4.8" stroke="url(#ribbon)" stroke-width="2" stroke-linecap="round"/>
  <g fill="#090909" fill-opacity=".72" stroke="#F2EEE7" stroke-opacity=".48" stroke-width=".8">
    <ellipse cx="40.5" cy="43" rx="2.1" ry="3.6" transform="rotate(-18 40.5 43)"/>
    <ellipse cx="50.8" cy="42" rx="2.1" ry="3.6" transform="rotate(7 50.8 42)"/>
    <ellipse cx="59" cy="47.5" rx="2" ry="3.4" transform="rotate(19 59 47.5)"/>
    <ellipse cx="35.8" cy="53.3" rx="2" ry="3.4" transform="rotate(-24 35.8 53.3)"/>
    <ellipse cx="47" cy="55.8" rx="2.1" ry="3.7" transform="rotate(3 47 55.8)"/>
    <ellipse cx="57.9" cy="59.7" rx="2" ry="3.4" transform="rotate(24 57.9 59.7)"/>
    <ellipse cx="43.4" cy="68.1" rx="1.8" ry="3.1" transform="rotate(-7 43.4 68.1)"/>
    <ellipse cx="52.5" cy="68" rx="1.8" ry="3.1" transform="rotate(12 52.5 68)"/>
  </g>
  <path d="M33.6 37.3c8.6-8.7 21.1-8.8 29.1-.4" stroke="#fff" stroke-opacity=".18" stroke-width="1.2" stroke-linecap="round"/>
  <defs>
    <linearGradient id="berry" x1="29" x2="69" y1="30" y2="74" gradientUnits="userSpaceOnUse">
      <stop stop-color="#F7F3EC"/>
      <stop offset=".32" stop-color="#9C9891"/>
      <stop offset=".68" stop-color="#302F2D"/>
      <stop offset="1" stop-color="#EDE7DC"/>
    </linearGradient>
    <linearGradient id="edge" x1="28" x2="71" y1="26" y2="78" gradientUnits="userSpaceOnUse">
      <stop stop-color="#FFFFFF"/>
      <stop offset=".52" stop-color="#77736E"/>
      <stop offset="1" stop-color="#F2E7D5"/>
    </linearGradient>
    <linearGradient id="leaf" x1="31" x2="64" y1="17" y2="35" gradientUnits="userSpaceOnUse">
      <stop stop-color="#F8F4ED"/>
      <stop offset=".55" stop-color="#86827D"/>
      <stop offset="1" stop-color="#211F1D"/>
    </linearGradient>
    <linearGradient id="ribbon" x1="14" x2="85" y1="35" y2="42" gradientUnits="userSpaceOnUse">
      <stop stop-color="#F7F1E7"/>
      <stop offset=".5" stop-color="#6F6B66"/>
      <stop offset="1" stop-color="#F7F1E7"/>
    </linearGradient>
  </defs>
</svg>
